<svg width="300" height="200" viewBox="0 0 300 200" fill="none" xmlns="http://www.w3.org/2000/svg">
  <!-- Background -->
  <rect width="300" height="200" rx="12" fill="#E8F4F1"/>

  <!-- House outline -->
  <path d="M50 100 L150 40 L250 100" stroke="#2A9D8F" stroke-width="4" fill="none"/>
  <rect x="70" y="100" width="160" height="80" fill="none" stroke="#2A9D8F" stroke-width="4"/>

  <!-- Window -->
  <rect x="90" y="115" width="40" height="35" fill="#baddef" stroke="#5a5d63" stroke-width="2"/>
  <line x1="110" y1="115" x2="110" y2="150" stroke="#5a5d63" stroke-width="2"/>
  <line x1="90" y1="132" x2="130" y2="132" stroke="#5a5d63" stroke-width="2"/>

  <!-- Door -->
  <rect x="160" y="125" width="35" height="55" fill="#264653"/>
  <circle cx="188" cy="155" r="3" fill="#E9C46A"/>

  <!-- Cleaning supplies -->
  <!-- Broom -->
  <rect x="220" y="60" width="6" height="80" fill="#D4763A"/>
  <path d="M210 140 L233 140 L223 160 Z" fill="#E9C46A"/>

  <!-- Spray bottle -->
  <rect x="255" y="90" width="25" height="50" rx="5" fill="#5eb2f2"/>
  <rect x="262" y="80" width="10" height="15" fill="#5a5d63"/>
  <rect x="275" y="85" width="15" height="8" fill="#5a5d63"/>

  <!-- Sparkles -->
  <path d="M100 80 L105 90 L100 100 L95 90 Z" fill="#E9C46A"/>
  <path d="M200 70 L203 77 L200 84 L197 77 Z" fill="#E9C46A"/>
  <circle cx="170" cy="60" r="3" fill="#2A9D8F"/>
  <circle cx="130" cy="70" r="2" fill="#2A9D8F"/>

  <!-- Bubbles -->
  <circle cx="240" cy="110" r="5" fill="#FFFFFF" stroke="#baddef"/>
  <circle cx="250" cy="125" r="4" fill="#FFFFFF" stroke="#baddef"/>
  <circle cx="235" cy="130" r="3" fill="#FFFFFF" stroke="#baddef"/>
</svg>
