<svg width="300" height="200" viewBox="0 0 300 200" fill="none" xmlns="http://www.w3.org/2000/svg">
  <!-- Background -->
  <rect width="300" height="200" rx="12" fill="#E8F4F1"/>

  <!-- Plate -->
  <ellipse cx="150" cy="130" rx="70" ry="25" fill="#FFFFFF"/>
  <ellipse cx="150" cy="125" rx="60" ry="20" fill="#F8F9FA"/>

  <!-- Food items on plate -->
  <ellipse cx="130" cy="115" rx="20" ry="10" fill="#2A9D8F"/>
  <ellipse cx="165" cy="118" rx="15" ry="8" fill="#F4A261"/>
  <circle cx="145" cy="108" r="12" fill="#E9C46A"/>

  <!-- Steam -->
  <path d="M120 85 Q125 75 120 65" stroke="#ccd4da" stroke-width="2" fill="none"/>
  <path d="M150 80 Q155 70 150 60" stroke="#ccd4da" stroke-width="2" fill="none"/>
  <path d="M180 85 Q185 75 180 65" stroke="#ccd4da" stroke-width="2" fill="none"/>

  <!-- Vegetables -->
  <circle cx="60" cy="90" r="15" fill="#2A9D8F"/>
  <circle cx="80" cy="100" r="12" fill="#F4A261"/>
  <ellipse cx="50" cy="110" rx="10" ry="15" fill="#E9C46A"/>

  <!-- Cooking pot -->
  <rect x="220" y="90" width="50" height="40" rx="5" fill="#5a5d63"/>
  <rect x="215" y="85" width="60" height="10" rx="3" fill="#1A1D24"/>
  <ellipse cx="245" cy="130" rx="25" ry="8" fill="#1A1D24"/>

  <!-- Chef hat -->
  <ellipse cx="245" cy="55" rx="20" ry="8" fill="#FFFFFF"/>
  <rect x="230" y="40" width="30" height="20" fill="#FFFFFF"/>
  <ellipse cx="245" cy="40" rx="18" ry="12" fill="#FFFFFF"/>

  <!-- Heart -->
  <path d="M70 50 C70 42 62 38 58 44 C54 38 46 42 46 50 C46 62 58 70 58 70 C58 70 70 62 70 50Z" fill="#F4A261" transform="scale(0.5) translate(400 80)"/>
</svg>
