<svg width="200" height="350" viewBox="0 0 200 350" fill="none" xmlns="http://www.w3.org/2000/svg">
  <!-- Phone frame -->
  <rect x="5" y="5" width="190" height="340" rx="25" fill="#1A1D24"/>
  <rect x="12" y="18" width="176" height="314" rx="18" fill="#FFFFFF"/>

  <!-- Header -->
  <rect x="12" y="18" width="176" height="50" rx="18" fill="#2A9D8F"/>
  <text x="55" y="48" font-family="system-ui" font-size="14" font-weight="bold" fill="white">Check In</text>

  <!-- GPS Icon -->
  <circle cx="100" cy="130" r="40" fill="#E8F4F1"/>
  <path d="M100 100 C85 100 75 112 75 125 C75 145 100 170 100 170 C100 170 125 145 125 125 C125 112 115 100 100 100Z" fill="#2A9D8F"/>
  <circle cx="100" cy="122" r="10" fill="white"/>

  <!-- Location verified text -->
  <text x="45" y="200" font-family="system-ui" font-size="12" font-weight="bold" fill="#1A1D24">Location Verified</text>
  <circle cx="145" cy="195" r="12" fill="#2A9D8F"/>
  <path d="M140 195L143 198L151 190" stroke="white" stroke-width="2" stroke-linecap="round"/>

  <!-- Patient info -->
  <rect x="25" y="220" width="150" height="50" rx="8" fill="#F8F9FA"/>
  <text x="35" y="242" font-family="system-ui" font-size="11" fill="#5a5d63">Patient</text>
  <text x="35" y="258" font-family="system-ui" font-size="13" font-weight="bold" fill="#1A1D24">Mary Johnson</text>

  <!-- Check in button -->
  <rect x="25" y="285" width="150" height="35" rx="17" fill="#2A9D8F"/>
  <text x="62" y="307" font-family="system-ui" font-size="13" font-weight="bold" fill="white">Check In Now</text>
</svg>
