<svg width="119" height="116" viewBox="0 0 119 116" fill="none" xmlns="http://www.w3.org/2000/svg">
<path d="M0 0C0 7.97472 1.58093 15.8714 4.65258 23.2391C7.72422 30.6068 12.2264 37.3012 17.9021 42.9401C23.083 48.0876 29.1493 52.2633 35.8081 55.2735H0V116C8.0266 116 15.9747 114.429 23.3903 111.377C30.8059 108.326 37.5439 103.853 43.2195 98.2136C45.5688 95.8795 47.7167 93.3644 49.6457 90.6957V116H110.767C110.767 108.025 109.186 100.129 106.115 92.7609C103.043 85.3932 98.5409 78.6988 92.8652 73.0599C87.6843 67.9124 81.618 63.7367 74.9592 60.7265H119C119 52.7518 117.419 44.8551 114.347 37.4874C111.276 30.1197 106.774 23.4253 101.098 17.7864C95.4223 12.1474 88.6843 7.6743 81.2687 4.6225C74.8535 1.98243 68.0398 0.450914 61.1216 0.0856871V0H0Z" fill="#2E7D6B"/>
</svg>
