<svg width="857" height="135" viewBox="0 0 857 135" fill="none" xmlns="http://www.w3.org/2000/svg">
<path d="M-2.563e-06 0C-2.563e-06 7.97472 1.58093 15.8714 4.65258 23.2391C7.72422 30.6068 12.2264 37.3012 17.9021 42.9401C23.083 48.0876 29.1493 52.2633 35.8081 55.2735H-2.563e-06V116C8.0266 116 15.9747 114.429 23.3903 111.377C30.8059 108.326 37.5439 103.853 43.2195 98.2136C45.5688 95.8795 47.7167 93.3644 49.6457 90.6957V116H110.767C110.767 108.025 109.186 100.129 106.115 92.7609C103.043 85.3932 98.5409 78.6988 92.8652 73.0599C87.6843 67.9124 81.618 63.7367 74.9592 60.7265H119C119 52.7518 117.419 44.8551 114.347 37.4874C111.276 30.1197 106.774 23.4253 101.098 17.7864C95.4223 12.1474 88.6843 7.6743 81.2687 4.6225C74.8535 1.98243 68.0398 0.450914 61.1216 0.0856871V0H-2.563e-06Z" fill="#2E7D6B"/>
<path d="M832.612 109.792C830.393 109.792 828.729 109.707 827.62 109.536C826.511 109.365 825.444 109.152 824.42 108.896C823.481 108.64 822.201 108.427 820.58 108.256C818.959 108.085 816.484 108 813.156 108L810.084 83.936H811.748C813.113 91.9574 815.673 98.016 819.428 102.112C823.183 106.123 827.279 108.128 831.716 108.128C836.068 108.128 839.353 107.232 841.572 105.44C843.876 103.648 845.028 101.216 845.028 98.144C845.028 96.1814 844.516 94.4747 843.492 93.024C842.553 91.488 840.889 89.952 838.5 88.416C836.111 86.7947 832.868 84.8747 828.772 82.656L825.06 80.608C820.367 77.9627 816.868 74.8907 814.564 71.392C812.345 67.808 811.236 63.968 811.236 59.872C811.236 54.0693 813.327 49.504 817.508 46.176C821.775 42.848 827.449 41.184 834.532 41.184C836.324 41.184 837.775 41.2694 838.884 41.44C839.993 41.6107 841.06 41.824 842.084 42.08C843.108 42.336 844.388 42.5494 845.924 42.72C847.46 42.8907 849.508 42.976 852.068 42.976L853.86 63.584H852.324C851.812 59.5734 850.66 56.032 848.868 52.96C847.161 49.8027 845.113 47.3707 842.724 45.664C840.335 43.872 837.903 42.976 835.428 42.976C832.185 42.976 829.583 43.8294 827.62 45.536C825.743 47.2427 824.804 49.632 824.804 52.704C824.804 55.008 825.529 57.1414 826.98 59.104C828.516 60.9814 831.417 63.0294 835.684 65.248L839.524 67.168C845.497 70.24 849.849 73.44 852.58 76.768C855.311 80.096 856.676 84.3627 856.676 89.568C856.676 102.88 848.655 109.621 832.612 109.792Z" fill="#1A1D24"/>
<path d="M774.057 109.536C768.169 109.536 762.921 108.085 758.313 105.184C753.79 102.283 750.249 98.272 747.689 93.152C745.129 87.9467 743.849 82.016 743.849 75.36C743.849 68.5334 745.257 62.56 748.073 57.44C750.889 52.32 754.729 48.352 759.593 45.536C764.542 42.6347 770.132 41.184 776.361 41.184C781.566 41.184 786.174 42.208 790.185 44.256C794.281 46.304 797.524 49.2054 799.913 52.96C802.388 56.6294 803.796 60.896 804.137 65.76L804.265 67.68H761.257V68.32C761.257 77.3654 763.262 84.6187 767.273 90.08C771.284 95.456 776.66 98.144 783.401 98.144C787.497 98.144 791.38 97.1627 795.049 95.2C798.804 93.152 801.833 90.4214 804.137 87.008L805.289 87.392C803.838 91.744 801.577 95.584 798.505 98.912C795.433 102.24 791.806 104.843 787.625 106.72C783.444 108.597 778.921 109.536 774.057 109.536ZM761.385 65.76H787.369C787.369 59.0187 786.26 53.5574 784.041 49.376C781.908 45.1947 778.878 43.104 774.953 43.104C771.198 43.104 768.084 45.152 765.609 49.248C763.134 53.344 761.726 58.848 761.385 65.76Z" fill="#1A1D24"/>
<path d="M686.893 108V106.72H687.021C690.093 106.72 692.568 105.781 694.445 103.904C696.322 102.027 697.261 99.552 697.261 96.48V54.496C697.261 51.2533 696.578 48.736 695.213 46.944C693.933 45.152 691.16 44.256 686.893 44.256V42.976H699.565C704.088 42.976 707.501 42.5493 709.805 41.696C712.109 40.7573 713.73 39.5627 714.669 38.112H715.309L715.437 59.104C716.546 56.544 717.954 53.856 719.661 51.04C721.453 48.224 723.672 45.8773 726.317 44C729.048 42.0373 732.29 41.056 736.045 41.056C737.325 41.056 738.69 41.184 740.141 41.44C741.592 41.696 743.128 42.1653 744.749 42.848L739.757 57.824C736.685 56.1173 733.997 54.9227 731.693 54.24C729.474 53.5573 727.512 53.216 725.805 53.216C722.904 53.216 720.728 54.112 719.277 55.904C717.912 57.696 716.717 59.8293 715.693 62.304V96.48C715.693 99.552 716.632 102.027 718.509 103.904C720.386 105.781 722.861 106.72 725.933 106.72H726.061V108H686.893Z" fill="#1A1D24"/>
<path d="M638.123 109.792C632.918 109.792 628.736 108.384 625.579 105.568C622.422 102.752 620.843 99.04 620.843 94.432C620.843 92.4693 621.184 90.6346 621.867 88.928C622.55 87.136 623.83 85.3866 625.707 83.68C627.67 81.9733 630.358 80.224 633.771 78.432C637.184 76.5546 641.707 74.592 647.339 72.544L659.243 68.192V58.592C659.243 53.728 658.475 49.888 656.939 47.072C655.403 44.1706 653.27 42.72 650.539 42.72C647.296 42.8053 644.523 44.9386 642.219 49.12C640 53.3013 638.507 59.104 637.739 66.528L623.915 58.592C625.366 55.0933 627.584 52.0213 630.571 49.376C633.558 46.7306 636.971 44.6826 640.811 43.232C644.736 41.7813 648.832 41.056 653.099 41.056C660.352 41.056 666.24 43.104 670.763 47.2C675.371 51.2106 677.675 56.7146 677.675 63.712V94.56C677.675 99.5093 679.339 101.984 682.667 101.984C684.63 101.984 686.55 100.917 688.427 98.784L689.451 99.68C687.232 102.667 684.544 105.099 681.387 106.976C678.23 108.853 675.158 109.792 672.171 109.792C668.928 109.792 666.112 108.683 663.723 106.464C661.419 104.245 659.968 101.301 659.371 97.632C655.19 101.899 651.52 105.013 648.363 106.976C645.291 108.853 641.878 109.792 638.123 109.792ZM647.723 101.856C649.6 101.856 651.392 101.387 653.099 100.448C654.891 99.5093 656.896 97.9733 659.115 95.84L659.243 69.856L654.123 71.776C649.771 73.3973 646.443 75.0613 644.139 76.768C641.835 78.3893 640.214 80.224 639.275 82.272C638.422 84.32 637.995 86.6666 637.995 89.312C637.995 92.9813 638.891 96.0106 640.683 98.4C642.56 100.704 644.907 101.856 647.723 101.856Z" fill="#1A1D24"/>
<path d="M582.291 109.792C571.198 109.792 561.47 107.744 553.107 103.648C544.744 99.4667 538.216 93.6213 533.523 86.112C528.915 78.6027 526.611 69.856 526.611 59.872C526.611 49.8027 528.915 41.056 533.523 33.632C538.216 26.208 544.83 20.448 553.363 16.352C561.896 12.256 572.008 10.208 583.699 10.208C586.515 10.208 588.862 10.336 590.739 10.592C592.616 10.7627 594.366 10.976 595.987 11.232C597.608 11.488 599.443 11.744 601.491 12C603.624 12.1707 606.27 12.256 609.427 12.256L613.267 37.856H611.987C611.048 32.8213 609.171 28.384 606.355 24.544C603.624 20.6187 600.168 17.5467 595.987 15.328C591.891 13.024 587.326 11.872 582.291 11.872C577.342 11.872 572.776 13.0667 568.595 15.456C564.414 17.8453 560.83 21.1733 557.843 25.44C554.856 29.792 552.51 34.9973 550.803 41.056C549.182 47.0293 548.371 53.6 548.371 60.768C548.371 70.24 549.822 78.5173 552.723 85.6C555.624 92.5973 559.72 98.0587 565.011 101.984C570.302 105.824 576.531 107.744 583.699 107.744C591.891 107.744 598.632 105.312 603.923 100.448C609.299 95.4987 612.627 88.6293 613.907 79.84H615.187L611.475 107.488C607.464 107.488 603.923 107.659 600.851 108C597.779 108.427 594.792 108.811 591.891 109.152C589.075 109.579 585.875 109.792 582.291 109.792Z" fill="#1A1D24"/>
<path d="M484.771 108V106.72H484.899C487.971 106.72 490.446 105.781 492.323 103.904C494.2 102.027 495.139 99.552 495.139 96.48V54.496C495.139 51.2533 494.456 48.736 493.091 46.944C491.811 45.152 489.038 44.256 484.771 44.256V42.976H497.827C502.179 42.976 505.507 42.5067 507.811 41.568C509.944 40.6293 511.438 39.4773 512.291 38.112H513.571V96.48C513.571 99.552 514.51 102.027 516.387 103.904C518.264 105.781 520.739 106.72 523.811 106.72H523.939V108H484.771ZM504.227 30.048C501.155 30.048 498.595 29.0667 496.547 27.104C494.584 25.056 493.603 22.496 493.603 19.424C493.603 16.352 494.584 13.8347 496.547 11.872C498.595 9.82399 501.155 8.79999 504.227 8.79999C507.214 8.79999 509.688 9.82399 511.651 11.872C513.699 13.92 514.723 16.4373 514.723 19.424C514.723 22.4107 513.699 24.928 511.651 26.976C509.688 29.024 507.214 30.048 504.227 30.048Z" fill="#1A1D24"/>
<path d="M446.875 108V106.72C449.947 106.72 452.422 105.824 454.299 104.032C456.262 102.155 457.243 99.6373 457.243 96.48V23.52C457.243 20.448 456.262 17.9733 454.299 16.096C452.422 14.2187 449.947 13.28 446.875 13.28V12H459.931C464.283 12 467.611 11.5307 469.915 10.592C472.048 9.65332 473.542 8.50132 474.395 7.13599H475.675V96.48C475.675 99.6373 476.614 102.155 478.491 104.032C480.454 105.824 482.971 106.72 486.043 106.72V108H446.875Z" fill="#1A1D24"/>
<path d="M370.574 134.88V133.6H370.702C373.774 133.6 376.249 132.661 378.126 130.784C380.003 128.907 380.942 126.432 380.942 123.36V54.496C380.857 50.7413 380.046 48.096 378.51 46.56C376.974 45.024 374.329 44.256 370.574 44.256V42.976H383.246C388.281 42.976 391.737 42.5067 393.614 41.568C395.491 40.6293 396.857 39.4773 397.71 38.112H398.99L399.118 54.496C401.081 50.656 404.067 47.456 408.078 44.896C412.089 42.336 416.313 41.056 420.75 41.056C425.529 41.056 429.753 42.5067 433.422 45.408C437.091 48.3093 439.95 52.2773 441.998 57.312C444.131 62.2613 445.198 67.9787 445.198 74.464C445.198 81.632 443.918 87.8613 441.358 93.152C438.798 98.4427 435.171 102.539 430.478 105.44C425.87 108.341 420.366 109.792 413.966 109.792C410.467 109.792 407.609 109.237 405.39 108.128C403.171 107.104 401.166 105.355 399.374 102.88V123.36C399.374 126.432 400.313 128.907 402.19 130.784C404.067 132.661 406.542 133.6 409.614 133.6H409.742V134.88H370.574ZM411.278 107.616C415.886 107.616 419.385 104.757 421.774 99.04C424.078 93.2373 425.23 84.9173 425.23 74.08C425.23 55.4773 421.475 46.176 413.966 46.176C411.065 46.176 408.206 47.328 405.39 49.632C402.574 51.936 400.569 54.752 399.374 58.08V87.904C399.374 94.048 400.441 98.8693 402.574 102.368C404.707 105.867 407.609 107.616 411.278 107.616Z" fill="#1A1D24"/>
<path d="M249.518 108V106.72H249.646C252.718 106.72 255.193 105.781 257.07 103.904C258.947 102.027 259.886 99.552 259.886 96.48V54.496C259.886 51.2534 259.203 48.736 257.838 46.944C256.558 45.152 253.785 44.256 249.518 44.256V42.976H262.19C265.689 42.976 268.377 42.8054 270.254 42.464C272.217 42.1227 273.667 41.696 274.606 41.184C275.545 40.5867 276.227 39.9894 276.654 39.392H277.934L278.062 56.032C280.281 51.5947 283.651 48.0107 288.174 45.28C292.697 42.5494 297.475 41.184 302.51 41.184C307.374 41.184 311.427 42.5494 314.67 45.28C317.913 48.0107 320.003 51.68 320.942 56.288C323.331 51.68 326.745 48.0107 331.182 45.28C335.705 42.5494 340.569 41.184 345.774 41.184C351.491 41.184 356.057 43.0614 359.47 46.816C362.969 50.5707 364.718 55.52 364.718 61.664V96.48C364.718 99.552 365.657 102.027 367.534 103.904C369.411 105.781 371.886 106.72 374.958 106.72H375.086V108H336.046V106.72H336.174C339.246 106.72 341.721 105.781 343.598 103.904C345.475 102.027 346.414 99.552 346.414 96.48V60.384C346.414 56.1174 345.561 52.704 343.854 50.144C342.147 47.584 339.929 46.304 337.198 46.304C334.553 46.304 331.779 47.4987 328.878 49.888C325.977 52.192 323.459 55.2214 321.326 58.976C321.411 59.1467 321.454 59.36 321.454 59.616C321.454 59.872 321.454 60.0854 321.454 60.256V96.48C321.454 99.552 322.393 102.027 324.27 103.904C326.147 105.781 328.622 106.72 331.694 106.72H331.822V108H292.782V106.72H292.91C295.982 106.72 298.457 105.781 300.334 103.904C302.211 102.027 303.15 99.552 303.15 96.48V60.384C303.15 56.1174 302.297 52.704 300.59 50.144C298.969 47.584 296.793 46.304 294.062 46.304C291.417 46.304 288.643 47.456 285.742 49.76C282.926 51.9787 280.451 55.008 278.318 58.848V96.48C278.318 99.552 279.257 102.027 281.134 103.904C283.011 105.781 285.486 106.72 288.558 106.72H288.686V108H249.518Z" fill="#1A1D24"/>
<path d="M211.646 108V106.72H211.774C214.846 106.72 217.321 105.781 219.198 103.904C221.075 102.027 222.014 99.552 222.014 96.48V54.496C222.014 51.2533 221.331 48.736 219.966 46.944C218.686 45.152 215.913 44.256 211.646 44.256V42.976H224.702C229.054 42.976 232.382 42.5067 234.686 41.568C236.819 40.6293 238.313 39.4773 239.166 38.112H240.446V96.48C240.446 99.552 241.385 102.027 243.262 103.904C245.139 105.781 247.614 106.72 250.686 106.72H250.814V108H211.646ZM231.102 30.048C228.03 30.048 225.47 29.0667 223.422 27.104C221.459 25.056 220.478 22.496 220.478 19.424C220.478 16.352 221.459 13.8347 223.422 11.872C225.47 9.82399 228.03 8.79999 231.102 8.79999C234.089 8.79999 236.563 9.82399 238.526 11.872C240.574 13.92 241.598 16.4373 241.598 19.424C241.598 22.4107 240.574 24.928 238.526 26.976C236.563 29.024 234.089 30.048 231.102 30.048Z" fill="#1A1D24"/>
<path d="M176.08 109.792C173.861 109.792 172.027 109.707 170.576 109.536C169.211 109.365 167.845 109.152 166.48 108.896C165.115 108.64 163.451 108.427 161.488 108.256C159.525 108.085 156.837 108 153.424 108L148.944 74.72H150.48C151.76 85.216 154.661 93.3227 159.184 99.04C163.792 104.672 169.68 107.488 176.848 107.488C182.139 107.488 186.448 105.995 189.776 103.008C193.104 100.021 194.768 96.1387 194.768 91.36C194.768 89.312 194.384 87.3493 193.616 85.472C192.933 83.5947 191.739 81.5893 190.032 79.456C188.325 77.3227 186.064 75.0187 183.248 72.544C180.432 69.984 176.933 67.1254 172.752 63.968L167.504 60C161.104 55.136 156.667 50.784 154.192 46.944C151.717 43.104 150.48 38.9227 150.48 34.4C150.48 26.8907 153.211 21.0027 158.672 16.736C164.219 12.384 171.515 10.208 180.56 10.208C182.779 10.208 184.571 10.2933 185.936 10.464C187.387 10.6347 188.752 10.848 190.032 11.104C191.397 11.36 192.976 11.5733 194.768 11.744C196.56 11.9147 198.864 12 201.68 12L202.96 37.856H201.68C200.485 29.92 197.925 23.648 194 19.04C190.075 14.432 185.339 12.128 179.792 12.128C175.867 12.128 172.709 13.28 170.32 15.584C168.016 17.888 166.864 20.96 166.864 24.8C166.864 28.128 167.931 31.328 170.064 34.4C172.283 37.3867 176.08 40.8853 181.456 44.896L186.96 48.992C192.592 53.088 197.029 56.8854 200.272 60.384C203.6 63.7974 205.989 67.1253 207.44 70.368C208.891 73.6107 209.616 77.0667 209.616 80.736C209.616 86.368 208.208 91.36 205.392 95.712C202.576 100.064 198.651 103.477 193.616 105.952C188.667 108.341 182.821 109.621 176.08 109.792Z" fill="#1A1D24"/>
</svg>
